HIERARCHY
ROOT Hips
{
	OFFSET 0.00000 0.00000 0.00000
	CHANNELS 6 Xposition Yposition Zposition Zrotation Yrotation Xrotation 
	JOINT LHipJoint
	{
		OFFSET 0 0 0
		CHANNELS 3 Zrotation Yrotation Xrotation
		JOINT LeftHip
		{
			OFFSET 1.33213 -1.58186 0.78596
			CHANNELS 3 Zrotation Yrotation Xrotation
			JOINT LeftKnee
			{
				OFFSET 2.29717 -6.31144 0.00000
				CHANNELS 3 Zrotation Yrotation Xrotation
				JOINT LeftAnkle
				{
					OFFSET 2.38430 -6.55082 0.00000
					CHANNELS 3 Zrotation Yrotation Xrotation
					JOINT LeftToe
					{
						OFFSET 0.11863 -0.32594 1.77568
						CHANNELS 3 Zrotation Yrotation Xrotation
						End Site
						{
							OFFSET 0.00000 -0.00000 0.91633
						}
					}
				}
			}
		}
	}
	JOINT RHipJoint
	{
		OFFSET 0 0 0
		CHANNELS 3 Zrotation Yrotation Xrotation
		JOINT RightHip
		{
			OFFSET -1.41575 -1.58186 0.78596
			CHANNELS 3 Zrotation Yrotation Xrotation
			JOINT RightKnee
			{
				OFFSET -2.42012 -6.64922 0.00000
				CHANNELS 3 Zrotation Yrotation Xrotation
				JOINT RightAnkle
				{
					OFFSET -2.47254 -6.79327 0.00000
					CHANNELS 3 Zrotation Yrotation Xrotation
					JOINT RightToe
					{
						OFFSET -0.15219 -0.41813 1.93430
						CHANNELS 3 Zrotation Yrotation Xrotation
						End Site
						{
							OFFSET -0.00000 -0.00000 0.99984
						}
					}
				}
			}
		}
	}
	JOINT lowerback
	{
		OFFSET 0 0 0
		CHANNELS 3 Zrotation Yrotation Xrotation
		JOINT Chest
		{
			OFFSET -0.04717 2.09389 -0.14516
			CHANNELS 3 Zrotation Yrotation Xrotation
			JOINT Chest2
			{
				OFFSET 0.02825 2.09433 -0.11325
				CHANNELS 3 Zrotation Yrotation Xrotation
				JOINT lowerneck
				{
					OFFSET 0 0 0
					CHANNELS 3 Zrotation Yrotation Xrotation
					JOINT Neck
					{
						OFFSET -0.01210 1.39029 0.12448
						CHANNELS 3 Zrotation Yrotation Xrotation
						JOINT Head
						{
							OFFSET 0.09492 1.38365 0.14559
							CHANNELS 3 Zrotation Yrotation Xrotation
							End Site
							{
								OFFSET 0.03402 1.40343 0.03708
							}
						}
					}
				}
				JOINT LeftCollar
				{
					OFFSET 0 0 0
					CHANNELS 3 Zrotation Yrotation Xrotation
					JOINT LeftShoulder
					{
						OFFSET 2.83352 1.10671 -0.20481
CHANNELS 3 Zrotation Xrotation Yrotation
						JOINT LeftElbow
						{
OFFSET 0 -4.771950 -0.000000
CHANNELS 3 Zrotation Xrotation Yrotation
							JOINT LeftWrist
							{
OFFSET 0 -2.984440 0.000000
CHANNELS 3 Zrotation Xrotation Yrotation
								JOINT lhand
								{
									OFFSET 0 0 0
CHANNELS 3 Zrotation Xrotation Yrotation
									JOINT LFingers
									{
OFFSET 0 -0.992280 0.000000
CHANNELS 3 Zrotation Xrotation Yrotation
										End Site
										{
OFFSET 0 -0.800010 0.000000
										}
									}
								}
								JOINT LThumb
								{
OFFSET 0 0.000000 0.000000
CHANNELS 3 Zrotation Xrotation Yrotation
									End Site
									{
OFFSET 0 -0.812220 0.812220
									}
								}
							}
						}
					}
				}
				JOINT RightCollar
				{
					OFFSET 0 0 0
					CHANNELS 3 Zrotation Yrotation Xrotation
					JOINT RightShoulder
					{
						OFFSET -3.23760 1.11106 0.06723
CHANNELS 3 Zrotation Xrotation Yrotation
						JOINT RightElbow
						{
OFFSET 0 -4.620520 0.000000
CHANNELS 3 Zrotation Xrotation Yrotation
							JOINT RightWrist
							{
OFFSET 0 -2.953320 0.000000
CHANNELS 3 Zrotation Xrotation Yrotation
								JOINT rhand
								{
									OFFSET 0 0 0
CHANNELS 3 Zrotation Xrotation Yrotation
									JOINT RFingers
									{
OFFSET 0 -0.990960 0.000000
CHANNELS 3 Zrotation Xrotation Yrotation
										End Site
										{
OFFSET 0 -0.798930 0.000000
										}
									}
								}
								JOINT RThumb
								{
OFFSET 0 0.000000 0.000000
CHANNELS 3 Zrotation Xrotation Yrotation
									End Site
									{
OFFSET 0 -0.811130 0.811130
									}
								}
							}
						}
					}
				}
			}
		}
	}
}
MOTION
Frames: 12
Frame Time: 0.008333333333333333
-17.315800 16.210500 39.379900 -178.716000 -3.303200 -169.494000 0.000000 0.000000 0.000000 -16.958300 -9.794100 -15.361000 8.442500 16.435200 54.141200 4.284500 -31.558500 -40.951100 9.140800 -16.897500 -56.575900 0.000000 0.000000 0.000000 21.954200 9.864700 -24.661100 -2.779800 -10.329800 30.051500 -2.099600 16.987500 -26.941600 -3.286600 -11.145100 32.771000 -1.616200 -2.839200 -7.458900 1.475100 -3.729100 1.576000 1.972200 -1.927300 6.033400 -5.161300 -2.151500 1.471900 8.639200 -1.588300 -12.936100 3.546800 -0.701600 -3.947900 -0.000000 0.000000 0.000000 -1.308200 -4.745700 -20.670000 11.209000 -18.607800 1.842000 8.119800 27.328300 -7.837000 0.000000 0.000000 0.000000 -7.125000 0.000000 0.000000 -15.859400 37.451500 -3.039300 -0.000000 0.000000 0.000000 1.967800 6.476300 -3.729700 -12.648700 -20.770400 -2.327200 -1.936600 37.007100 7.621900 0.000000 0.000000 0.000000 7.125000 0.000000 -0.000000 20.843600 36.833200 4.425900
-17.293007 16.222971 39.301508 -178.427866 -3.178977 -169.552364 0.000000 0.000000 0.000000 -16.469333 -9.985349 -17.124021 9.115958 16.869489 56.471949 3.039566 -28.039892 -34.511530 9.998320 -17.390952 -59.458034 0.000000 0.000000 0.000000 22.507736 9.589468 -24.051289 -2.680213 -10.157166 29.488442 -2.071094 17.137157 -26.813691 -3.405478 -11.322834 33.378108 -1.361610 -2.770638 -7.386713 1.526952 -3.667971 1.606226 1.894484 -1.890316 6.007904 -5.098144 -2.123362 1.581993 8.588884 -1.553097 -12.998949 3.521734 -0.687961 -3.989369 0.000000 0.000000 0.000000 -1.269065 -4.751598 -20.955860 11.423656 -18.934208 1.911484 8.241750 26.929889 -7.783920 0.000000 0.000000 0.000000 -7.125000 0.000000 0.000000 -15.746727 37.408065 -3.033648 0.000000 0.000000 0.000000 1.875708 6.313127 -3.574145 -12.659390 -20.786128 -2.331009 -2.062482 36.992110 7.529009 0.000000 0.000000 0.000000 7.125000 0.000000 0.000000 20.717595 36.754747 4.438249
-17.271495 16.233293 39.223002 -178.185476 -3.055760 -169.629711 0.000000 0.000000 0.000000 -16.045367 -10.194530 -18.777190 9.723478 17.246874 58.553810 2.010448 -24.655150 -28.687637 10.659854 -17.762727 -61.669623 0.000000 0.000000 0.000000 22.994487 9.312498 -23.481709 -2.602651 -10.021995 29.048180 -2.037464 17.349368 -26.672470 -3.552740 -11.537733 34.118579 -1.142494 -2.702350 -7.308168 1.557990 -3.602337 1.656099 1.815235 -1.851982 6.000454 -5.061908 -2.094539 1.661667 8.580743 -1.511742 -13.048075 3.513433 -0.670617 -4.021095 0.000000 0.000000 0.000000 -1.214973 -4.780687 -21.254529 11.629027 -19.245681 1.978520 8.396360 26.549959 -7.757530 0.000000 0.000000 0.000000 -7.125000 0.000000 0.000000 -15.613081 37.392670 -3.012558 0.000000 0.000000 0.000000 1.791140 6.121936 -3.403677 -12.673122 -20.806384 -2.335893 -2.187037 36.957702 7.484148 0.000000 0.000000 0.000000 7.125000 0.000000 0.000000 20.605474 36.721121 4.429738
-17.252143 16.239989 39.144303 -178.020214 -2.934240 -169.739067 0.000000 0.000000 0.000000 -15.731000 -10.433945 -20.245136 10.219818 17.528311 60.216015 1.345222 -21.496125 -23.901855 10.990931 -17.929341 -62.750585 0.000000 0.000000 0.000000 23.368631 9.032596 -22.979963 -2.562226 -9.949992 28.814970 -1.995197 17.667052 -26.508806 -3.747860 -11.815300 35.083919 -0.983191 -2.634525 -7.218902 1.553936 -3.529106 1.739099 1.733403 -1.811373 6.023431 -5.071062 -2.064558 1.690050 8.643715 -1.460013 -13.074062 3.533400 -0.647026 -4.036392 0.000000 0.000000 0.000000 -1.135659 -4.848881 -21.574793 11.818741 -19.531971 2.041431 8.606040 26.201188 -7.776145 0.000000 0.000000 0.000000 -7.125000 0.000000 0.000000 -15.444071 37.424555 -2.965436 0.000000 0.000000 0.000000 1.719261 5.883504 -3.208066 -12.691982 -20.834275 -2.342589 -2.309356 36.890552 7.520273 0.000000 0.000000 0.000000 7.125000 0.000000 0.000000 20.516760 36.763082 4.386058
-17.232928 16.240190 39.068073 -178.004988 -2.735964 -169.914750 0.000000 0.000000 0.000000 -15.591737 -10.623500 -21.638383 10.657286 17.759157 61.658288 0.929203 -18.698240 -20.139388 11.047871 -17.958452 -62.936952 0.000000 0.000000 0.000000 23.580067 8.736136 -22.380236 -2.507209 -9.850452 28.494117 -1.938749 17.986566 -26.268887 -3.842757 -11.947816 35.548053 -1.006494 -2.565236 -7.050409 1.512646 -3.434467 1.858053 1.719956 -1.766098 6.047277 -5.130990 -2.029134 1.656086 8.738386 -1.403024 -13.040949 3.569971 -0.618906 -4.022735 0.000000 0.000000 0.000000 -1.068468 -4.959295 -21.779740 11.983478 -19.779518 2.096885 8.842938 25.932605 -7.781037 0.000000 0.000000 0.000000 -7.125000 0.000000 0.000000 -15.249308 37.445005 -2.917949 0.000000 0.000000 0.000000 1.647884 5.559578 -3.082853 -12.702472 -20.849771 -2.346313 -2.411044 36.909537 7.600310 0.000000 0.000000 0.000000 7.125000 0.000000 0.000000 20.456316 36.844976 4.328196
-17.213925 16.238321 38.992326 -178.042240 -2.512554 -170.101414 0.000000 0.000000 0.000000 -15.513064 -10.811808 -23.004869 11.059188 17.963443 62.973094 0.618435 -16.087932 -16.849390 10.981504 -17.925537 -62.720753 0.000000 0.000000 0.000000 23.731843 8.427384 -21.766716 -2.448931 -9.744423 28.152901 -1.877917 18.312365 -26.007885 -3.900522 -12.026736 35.826803 -1.098638 -2.498740 -6.871405 1.463629 -3.336604 1.985823 1.737536 -1.721628 6.078069 -5.210168 -1.993896 1.601134 8.834457 -1.349377 -12.983549 3.609748 -0.591551 -3.997772 0.000000 0.000000 0.000000 -1.016985 -5.086621 -21.910653 12.133087 -20.003851 2.147620 9.080471 25.705644 -7.768221 0.000000 0.000000 0.000000 -7.125000 0.000000 0.000000 -15.050067 37.448236 -2.876230 0.000000 0.000000 0.000000 1.569386 5.203760 -2.991511 -12.708267 -20.858315 -2.348370 -2.496868 36.966068 7.694795 0.000000 0.000000 0.000000 7.125000 0.000000 0.000000 20.412476 36.939385 4.267725
-17.196170 16.237645 38.913811 -178.087088 -2.298205 -170.199097 0.000000 0.000000 0.000000 -15.438296 -11.119970 -24.362783 11.344925 18.098171 63.894753 0.456981 -13.958938 -14.476988 10.693985 -17.780364 -61.781524 0.000000 0.000000 0.000000 23.854591 8.068661 -21.302999 -2.403837 -9.660747 27.885041 -1.820720 18.680918 -25.785242 -3.937506 -12.076683 36.003984 -1.237606 -2.457148 -6.818386 1.452755 -3.269885 2.087008 1.812304 -1.695333 6.159102 -5.303182 -1.974175 1.549221 8.858909 -1.334633 -12.895819 3.630697 -0.581722 -3.962447 0.000000 0.000000 0.000000 -1.052802 -5.232285 -21.781024 12.233104 -20.153202 2.182024 9.252246 25.585353 -7.657145 0.000000 0.000000 0.000000 -7.125000 0.000000 0.000000 -14.883761 37.350983 -2.879056 0.000000 0.000000 0.000000 1.435764 4.828572 -2.973633 -12.700280 -20.846457 -2.345544 -2.516282 37.083042 7.784614 0.000000 0.000000 0.000000 7.125000 0.000000 0.000000 20.420832 37.024843 4.224290
-17.178626 16.245654 38.832952 -178.075743 -2.110570 -170.269434 0.000000 0.000000 0.000000 -15.296367 -11.516659 -25.645452 11.553134 18.194977 64.564772 0.364223 -12.064155 -12.815361 10.246449 -17.538130 -60.298087 0.000000 0.000000 0.000000 24.031280 7.719884 -20.861369 -2.363822 -9.585876 27.645849 -1.778789 18.977771 -25.631563 -3.916914 -12.048621 35.904764 -1.306617 -2.404708 -6.788776 1.437434 -3.194211 2.163551 1.843919 -1.661526 6.222677 -5.335675 -1.963409 1.516149 8.862355 -1.337618 -12.768603 3.635210 -0.584122 -3.918136 0.000000 0.000000 0.000000 -1.043244 -5.328216 -21.692022 12.327532 -20.293957 2.214655 9.391295 25.454154 -7.556407 0.000000 0.000000 0.000000 -7.125000 0.000000 0.000000 -14.746964 37.261514 -2.884557 0.000000 0.000000 0.000000 1.340215 4.491397 -2.969338 -12.690190 -20.831535 -2.341966 -2.529145 37.173331 7.883598 0.000000 0.000000 0.000000 7.125000 0.000000 0.000000 20.437060 37.118503 4.178240
-17.161301 16.262733 38.749645 -178.005706 -1.950837 -170.311210 0.000000 0.000000 0.000000 -15.084291 -12.005810 -26.849530 11.680367 18.252173 64.971968 0.343212 -10.413991 -11.896098 9.631784 -17.194520 -58.246257 0.000000 0.000000 0.000000 24.264306 7.381496 -20.442807 -2.329111 -9.520202 27.436599 -1.752802 19.199738 -25.549915 -3.836188 -11.939081 35.516859 -1.302562 -2.340938 -6.783615 1.417467 -3.109184 2.214359 1.830465 -1.619873 6.268017 -5.304957 -1.961996 1.502756 8.843863 -1.359120 -12.600146 3.622554 -0.599297 -3.864441 0.000000 0.000000 0.000000 -0.986293 -5.372204 -21.645454 12.416123 -20.425737 2.245434 9.496166 25.311561 -7.466465 0.000000 0.000000 0.000000 -7.125000 0.000000 0.000000 -14.640987 37.180173 -2.892851 0.000000 0.000000 0.000000 1.284431 4.193926 -2.979229 -12.677903 -20.813412 -2.337605 -2.535166 37.235750 7.992155 0.000000 0.000000 0.000000 7.125000 0.000000 0.000000 20.461511 37.220732 4.129460
-17.143500 16.262666 38.670308 -177.876927 -1.788987 -170.370980 0.000000 0.000000 0.000000 -14.740123 -12.399491 -28.065781 11.717740 18.268779 65.091271 0.319396 -9.174181 -11.150259 8.944935 -16.758244 -55.878538 0.000000 0.000000 0.000000 24.544908 7.197004 -20.039540 -2.309588 -9.483052 27.318427 -1.754863 19.254156 -25.578397 -3.685075 -11.726820 34.775173 -1.230238 -2.257110 -6.689970 1.386599 -3.003147 2.239870 1.773985 -1.564513 6.230851 -5.286411 -1.928142 1.481689 8.883002 -1.339132 -12.345586 3.627256 -0.596743 -3.785821 0.000000 0.000000 0.000000 -0.863454 -5.334798 -21.701818 12.513710 -20.570482 2.279654 9.592252 25.056670 -7.460033 0.000000 0.000000 0.000000 -7.125000 0.000000 0.000000 -14.560201 37.180066 -2.876113 0.000000 0.000000 0.000000 1.274054 3.947153 -2.883383 -12.671067 -20.803332 -2.335148 -2.612683 37.197617 8.026305 0.000000 0.000000 0.000000 7.125000 0.000000 0.000000 20.408115 37.258133 4.097668
-17.125364 16.259380 38.592154 -177.794546 -1.652999 -170.413114 0.000000 0.000000 0.000000 -14.423374 -12.819218 -29.269963 11.707074 18.263909 65.057008 0.295430 -8.028631 -10.452306 8.200974 -16.252015 -53.261710 0.000000 0.000000 0.000000 24.769461 7.035907 -19.665194 -2.292222 -9.449873 27.213027 -1.761135 19.288452 -25.624898 -3.541993 -11.524293 34.069533 -1.205581 -2.183566 -6.586669 1.343065 -2.905216 2.251706 1.730583 -1.514269 6.175948 -5.294288 -1.887791 1.454363 8.948642 -1.309942 -12.074905 3.644041 -0.589441 -3.701438 0.000000 0.000000 0.000000 -0.732026 -5.289869 -21.757284 12.603957 -20.704220 2.311397 9.670931 24.809611 -7.500920 0.000000 0.000000 0.000000 -7.125000 0.000000 0.000000 -14.503884 37.225247 -2.847824 0.000000 0.000000 0.000000 1.275505 3.717323 -2.747856 -12.675789 -20.810311 -2.336817 -2.697224 37.114393 8.036624 0.000000 0.000000 0.000000 7.125000 0.000000 0.000000 20.342597 37.273674 4.074768
-17.106380 16.254588 38.515789 -177.895301 -1.602929 -170.387925 0.000000 0.000000 0.000000 -14.266222 -13.374720 -30.428149 11.586291 18.210030 64.671068 0.272453 -6.975684 -9.819887 7.307822 -15.565286 -49.994680 0.000000 0.000000 0.000000 24.785127 6.870338 -19.377613 -2.273914 -9.414671 27.101460 -1.766418 19.345157 -25.672388 -3.462372 -11.407872 33.668727 -1.373239 -2.154323 -6.498385 1.263751 -2.844947 2.232046 1.752761 -1.488036 6.106402 -5.382387 -1.843250 1.410560 9.070776 -1.272466 -11.796785 3.691285 -0.575926 -3.611312 0.000000 0.000000 0.000000 -0.607189 -5.263206 -21.755502 12.665393 -20.795022 2.333207 9.697164 24.647482 -7.652912 0.000000 0.000000 0.000000 -7.125000 0.000000 0.000000 -14.514512 37.376072 -2.794866 0.000000 0.000000 0.000000 1.291785 3.516305 -2.537991 -12.715538 -20.868982 -2.351008 -2.767077 36.936352 8.008056 0.000000 0.000000 0.000000 7.125000 0.000000 0.000000 20.278396 37.251742 4.072065
